    <svg xmlns="http://www.w3.org/2000/svg" viewBox="-80 209 3302 1073">
      <title>Mimir</title>
      <rect width="100%" height="100%" fill="#0B0B0D"/>
      <g fill="#F2EBDD">
<g transform="translate(0 1062) scale(1 -1)"><path d="M85 763H184L431 441L678 763H777V0H678V601L494 360L574 255H449L431 279L413 255H289L369 360L184 601V0H85Z"/></g>
<g transform="translate(922 1062) scale(1 -1)"><path d="M85 674 184 773V0H85Z"/></g>
<g transform="translate(1251 1062) scale(1 -1)"><path d="M85 763H184L431 441L678 763H777V0H678V601L494 360L574 255H449L431 279L413 255H289L369 360L184 601V0H85Z"/></g>
<g transform="translate(2173 1062) scale(1 -1)"><path d="M85 674 184 773V0H85Z"/></g>
<g transform="translate(2502 1062) scale(1 -1)"><path d="M617 0V-140L189 288V89L90 -10V387L44 433V573L90 527V763H331Q439 763 503.5 704.5Q568 646 568 547Q568 431 494.5 381.0Q421 331 287 329ZM318 428Q383 428 419.5 459.0Q456 490 456 550Q456 608 420.0 636.0Q384 664 312 664H189V428Z"/></g>
      </g>
    </svg>
