    <svg xmlns="http://www.w3.org/2000/svg" viewBox="0 0 2400 600">
      <defs>
        <radialGradient id="bg" cx="50%" cy="50%" r="75%">
          <stop offset="0%" stop-color="#1A1714"/>
          <stop offset="60%" stop-color="#0E0C0A"/>
          <stop offset="100%" stop-color="#000000"/>
        </radialGradient>
      </defs>
      <rect width="2400" height="600" fill="url(#bg)"/>
      <g fill="#F2EBDD">
<g transform="translate(504.29026098026736 448.27371101209417) scale(0.4201145767027371 -0.4201145767027371)"><path d="M85 763H184L431 441L678 763H777V0H678V601L494 360L574 255H449L431 279L413 255H289L369 360L184 601V0H85Z"/></g>
<g transform="translate(891.635900700191 448.27371101209417) scale(0.4201145767027371 -0.4201145767027371)"><path d="M85 674 184 773V0H85Z"/></g>
<g transform="translate(1029.8535964353914 448.27371101209417) scale(0.4201145767027371 -0.4201145767027371)"><path d="M85 763H184L431 441L678 763H777V0H678V601L494 360L574 255H449L431 279L413 255H289L369 360L184 601V0H85Z"/></g>
<g transform="translate(1417.199236155315 448.27371101209417) scale(0.4201145767027371 -0.4201145767027371)"><path d="M85 674 184 773V0H85Z"/></g>
<g transform="translate(1555.4169318905156 448.27371101209417) scale(0.4201145767027371 -0.4201145767027371)"><path d="M617 0V-140L189 288V89L90 -10V387L44 433V573L90 527V763H331Q439 763 503.5 704.5Q568 646 568 547Q568 431 494.5 381.0Q421 331 287 329ZM318 428Q383 428 419.5 459.0Q456 490 456 550Q456 608 420.0 636.0Q384 664 312 664H189V428Z"/></g>
      </g>

      <text x="1200.0" y="496.27371101209417"
            font-family="Georgia, 'Times New Roman', serif"
            font-size="16.8"
            fill="#F2EBDD"
            opacity="0.55"
            text-anchor="middle"
            letter-spacing="7.2">LOCAL-FIRST SECOND BRAIN</text>
    </svg>
